G04 #@! TF.FileFunction,Copper,L2,Bot,Signal*
%FSLAX46Y46*%
G04 Gerber Fmt 4.6, Leading zero omitted, Abs format (unit mm)*
G04 Created by KiCad (PCBNEW 4.0.2-stable) date 5/18/2016 9:32:54 PM*
%MOMM*%
G01*
G04 APERTURE LIST*
%ADD10C,0.100000*%
%ADD11R,4.000000X4.000000*%
%ADD12R,5.500000X5.500000*%
%ADD13C,0.685800*%
%ADD14C,0.254000*%
G04 APERTURE END LIST*
D10*
D11*
X152400000Y-129540000D03*
D12*
X165200000Y-129540000D03*
X139600000Y-129540000D03*
D13*
X152400000Y-134620000D03*
X146812000Y-130048000D03*
X155194000Y-122936000D03*
D14*
X152400000Y-129540000D02*
X152400000Y-134620000D01*
G36*
X169470000Y-145340000D02*
X135330000Y-145340000D01*
X135330000Y-129825750D01*
X136215000Y-129825750D01*
X136215000Y-132416310D01*
X136311673Y-132649699D01*
X136490302Y-132828327D01*
X136723691Y-132925000D01*
X139314250Y-132925000D01*
X139473000Y-132766250D01*
X139473000Y-129667000D01*
X139727000Y-129667000D01*
X139727000Y-132766250D01*
X139885750Y-132925000D01*
X142476309Y-132925000D01*
X142709698Y-132828327D01*
X142888327Y-132649699D01*
X142985000Y-132416310D01*
X142985000Y-129825750D01*
X142826250Y-129667000D01*
X139727000Y-129667000D01*
X139473000Y-129667000D01*
X136373750Y-129667000D01*
X136215000Y-129825750D01*
X135330000Y-129825750D01*
X135330000Y-126663690D01*
X136215000Y-126663690D01*
X136215000Y-129254250D01*
X136373750Y-129413000D01*
X139473000Y-129413000D01*
X139473000Y-126313750D01*
X139727000Y-126313750D01*
X139727000Y-129413000D01*
X142826250Y-129413000D01*
X142985000Y-129254250D01*
X142985000Y-127540000D01*
X149752560Y-127540000D01*
X149752560Y-131540000D01*
X149796838Y-131775317D01*
X149935910Y-131991441D01*
X150148110Y-132136431D01*
X150400000Y-132187440D01*
X151638000Y-132187440D01*
X151638000Y-133998917D01*
X151571460Y-134065341D01*
X151422270Y-134424630D01*
X151421931Y-134813663D01*
X151570493Y-135173212D01*
X151845341Y-135448540D01*
X152204630Y-135597730D01*
X152593663Y-135598069D01*
X152953212Y-135449507D01*
X153228540Y-135174659D01*
X153377730Y-134815370D01*
X153378069Y-134426337D01*
X153229507Y-134066788D01*
X153162000Y-133999163D01*
X153162000Y-132187440D01*
X154400000Y-132187440D01*
X154635317Y-132143162D01*
X154851441Y-132004090D01*
X154996431Y-131791890D01*
X155047440Y-131540000D01*
X155047440Y-129825750D01*
X161815000Y-129825750D01*
X161815000Y-132416310D01*
X161911673Y-132649699D01*
X162090302Y-132828327D01*
X162323691Y-132925000D01*
X164914250Y-132925000D01*
X165073000Y-132766250D01*
X165073000Y-129667000D01*
X165327000Y-129667000D01*
X165327000Y-132766250D01*
X165485750Y-132925000D01*
X168076309Y-132925000D01*
X168309698Y-132828327D01*
X168488327Y-132649699D01*
X168585000Y-132416310D01*
X168585000Y-129825750D01*
X168426250Y-129667000D01*
X165327000Y-129667000D01*
X165073000Y-129667000D01*
X161973750Y-129667000D01*
X161815000Y-129825750D01*
X155047440Y-129825750D01*
X155047440Y-127540000D01*
X155003162Y-127304683D01*
X154864090Y-127088559D01*
X154651890Y-126943569D01*
X154400000Y-126892560D01*
X150400000Y-126892560D01*
X150164683Y-126936838D01*
X149948559Y-127075910D01*
X149803569Y-127288110D01*
X149752560Y-127540000D01*
X142985000Y-127540000D01*
X142985000Y-126663690D01*
X161815000Y-126663690D01*
X161815000Y-129254250D01*
X161973750Y-129413000D01*
X165073000Y-129413000D01*
X165073000Y-126313750D01*
X165327000Y-126313750D01*
X165327000Y-129413000D01*
X168426250Y-129413000D01*
X168585000Y-129254250D01*
X168585000Y-126663690D01*
X168488327Y-126430301D01*
X168309698Y-126251673D01*
X168076309Y-126155000D01*
X165485750Y-126155000D01*
X165327000Y-126313750D01*
X165073000Y-126313750D01*
X164914250Y-126155000D01*
X162323691Y-126155000D01*
X162090302Y-126251673D01*
X161911673Y-126430301D01*
X161815000Y-126663690D01*
X142985000Y-126663690D01*
X142888327Y-126430301D01*
X142709698Y-126251673D01*
X142476309Y-126155000D01*
X139885750Y-126155000D01*
X139727000Y-126313750D01*
X139473000Y-126313750D01*
X139314250Y-126155000D01*
X136723691Y-126155000D01*
X136490302Y-126251673D01*
X136311673Y-126430301D01*
X136215000Y-126663690D01*
X135330000Y-126663690D01*
X135330000Y-116280000D01*
X169470000Y-116280000D01*
X169470000Y-145340000D01*
X169470000Y-145340000D01*
G37*
X169470000Y-145340000D02*
X135330000Y-145340000D01*
X135330000Y-129825750D01*
X136215000Y-129825750D01*
X136215000Y-132416310D01*
X136311673Y-132649699D01*
X136490302Y-132828327D01*
X136723691Y-132925000D01*
X139314250Y-132925000D01*
X139473000Y-132766250D01*
X139473000Y-129667000D01*
X139727000Y-129667000D01*
X139727000Y-132766250D01*
X139885750Y-132925000D01*
X142476309Y-132925000D01*
X142709698Y-132828327D01*
X142888327Y-132649699D01*
X142985000Y-132416310D01*
X142985000Y-129825750D01*
X142826250Y-129667000D01*
X139727000Y-129667000D01*
X139473000Y-129667000D01*
X136373750Y-129667000D01*
X136215000Y-129825750D01*
X135330000Y-129825750D01*
X135330000Y-126663690D01*
X136215000Y-126663690D01*
X136215000Y-129254250D01*
X136373750Y-129413000D01*
X139473000Y-129413000D01*
X139473000Y-126313750D01*
X139727000Y-126313750D01*
X139727000Y-129413000D01*
X142826250Y-129413000D01*
X142985000Y-129254250D01*
X142985000Y-127540000D01*
X149752560Y-127540000D01*
X149752560Y-131540000D01*
X149796838Y-131775317D01*
X149935910Y-131991441D01*
X150148110Y-132136431D01*
X150400000Y-132187440D01*
X151638000Y-132187440D01*
X151638000Y-133998917D01*
X151571460Y-134065341D01*
X151422270Y-134424630D01*
X151421931Y-134813663D01*
X151570493Y-135173212D01*
X151845341Y-135448540D01*
X152204630Y-135597730D01*
X152593663Y-135598069D01*
X152953212Y-135449507D01*
X153228540Y-135174659D01*
X153377730Y-134815370D01*
X153378069Y-134426337D01*
X153229507Y-134066788D01*
X153162000Y-133999163D01*
X153162000Y-132187440D01*
X154400000Y-132187440D01*
X154635317Y-132143162D01*
X154851441Y-132004090D01*
X154996431Y-131791890D01*
X155047440Y-131540000D01*
X155047440Y-129825750D01*
X161815000Y-129825750D01*
X161815000Y-132416310D01*
X161911673Y-132649699D01*
X162090302Y-132828327D01*
X162323691Y-132925000D01*
X164914250Y-132925000D01*
X165073000Y-132766250D01*
X165073000Y-129667000D01*
X165327000Y-129667000D01*
X165327000Y-132766250D01*
X165485750Y-132925000D01*
X168076309Y-132925000D01*
X168309698Y-132828327D01*
X168488327Y-132649699D01*
X168585000Y-132416310D01*
X168585000Y-129825750D01*
X168426250Y-129667000D01*
X165327000Y-129667000D01*
X165073000Y-129667000D01*
X161973750Y-129667000D01*
X161815000Y-129825750D01*
X155047440Y-129825750D01*
X155047440Y-127540000D01*
X155003162Y-127304683D01*
X154864090Y-127088559D01*
X154651890Y-126943569D01*
X154400000Y-126892560D01*
X150400000Y-126892560D01*
X150164683Y-126936838D01*
X149948559Y-127075910D01*
X149803569Y-127288110D01*
X149752560Y-127540000D01*
X142985000Y-127540000D01*
X142985000Y-126663690D01*
X161815000Y-126663690D01*
X161815000Y-129254250D01*
X161973750Y-129413000D01*
X165073000Y-129413000D01*
X165073000Y-126313750D01*
X165327000Y-126313750D01*
X165327000Y-129413000D01*
X168426250Y-129413000D01*
X168585000Y-129254250D01*
X168585000Y-126663690D01*
X168488327Y-126430301D01*
X168309698Y-126251673D01*
X168076309Y-126155000D01*
X165485750Y-126155000D01*
X165327000Y-126313750D01*
X165073000Y-126313750D01*
X164914250Y-126155000D01*
X162323691Y-126155000D01*
X162090302Y-126251673D01*
X161911673Y-126430301D01*
X161815000Y-126663690D01*
X142985000Y-126663690D01*
X142888327Y-126430301D01*
X142709698Y-126251673D01*
X142476309Y-126155000D01*
X139885750Y-126155000D01*
X139727000Y-126313750D01*
X139473000Y-126313750D01*
X139314250Y-126155000D01*
X136723691Y-126155000D01*
X136490302Y-126251673D01*
X136311673Y-126430301D01*
X136215000Y-126663690D01*
X135330000Y-126663690D01*
X135330000Y-116280000D01*
X169470000Y-116280000D01*
X169470000Y-145340000D01*
M02*
