G04 #@! TF.FileFunction,Legend,Top*
%FSLAX46Y46*%
G04 Gerber Fmt 4.6, Leading zero omitted, Abs format (unit mm)*
G04 Created by KiCad (PCBNEW 4.0.2-stable) date 5/18/2016 9:32:54 PM*
%MOMM*%
G01*
G04 APERTURE LIST*
%ADD10C,0.100000*%
%ADD11C,0.300000*%
%ADD12C,0.150000*%
%ADD13R,2.000000X2.400000*%
%ADD14R,1.598880X1.598880*%
%ADD15R,1.700000X1.900000*%
%ADD16R,1.950000X1.000000*%
G04 APERTURE END LIST*
D10*
D11*
X150420715Y-144188571D02*
X150420715Y-142688571D01*
X150777858Y-142688571D01*
X150992143Y-142760000D01*
X151135001Y-142902857D01*
X151206429Y-143045714D01*
X151277858Y-143331429D01*
X151277858Y-143545714D01*
X151206429Y-143831429D01*
X151135001Y-143974286D01*
X150992143Y-144117143D01*
X150777858Y-144188571D01*
X150420715Y-144188571D01*
X152492143Y-144117143D02*
X152349286Y-144188571D01*
X152063572Y-144188571D01*
X151920715Y-144117143D01*
X151849286Y-143974286D01*
X151849286Y-143402857D01*
X151920715Y-143260000D01*
X152063572Y-143188571D01*
X152349286Y-143188571D01*
X152492143Y-143260000D01*
X152563572Y-143402857D01*
X152563572Y-143545714D01*
X151849286Y-143688571D01*
X153135000Y-144117143D02*
X153277857Y-144188571D01*
X153563572Y-144188571D01*
X153706429Y-144117143D01*
X153777857Y-143974286D01*
X153777857Y-143902857D01*
X153706429Y-143760000D01*
X153563572Y-143688571D01*
X153349286Y-143688571D01*
X153206429Y-143617143D01*
X153135000Y-143474286D01*
X153135000Y-143402857D01*
X153206429Y-143260000D01*
X153349286Y-143188571D01*
X153563572Y-143188571D01*
X153706429Y-143260000D01*
X154420715Y-144188571D02*
X154420715Y-143188571D01*
X154420715Y-142688571D02*
X154349286Y-142760000D01*
X154420715Y-142831429D01*
X154492143Y-142760000D01*
X154420715Y-142688571D01*
X154420715Y-142831429D01*
X155777858Y-143188571D02*
X155777858Y-144402857D01*
X155706429Y-144545714D01*
X155635001Y-144617143D01*
X155492144Y-144688571D01*
X155277858Y-144688571D01*
X155135001Y-144617143D01*
X155777858Y-144117143D02*
X155635001Y-144188571D01*
X155349287Y-144188571D01*
X155206429Y-144117143D01*
X155135001Y-144045714D01*
X155063572Y-143902857D01*
X155063572Y-143474286D01*
X155135001Y-143331429D01*
X155206429Y-143260000D01*
X155349287Y-143188571D01*
X155635001Y-143188571D01*
X155777858Y-143260000D01*
X156492144Y-143188571D02*
X156492144Y-144188571D01*
X156492144Y-143331429D02*
X156563572Y-143260000D01*
X156706430Y-143188571D01*
X156920715Y-143188571D01*
X157063572Y-143260000D01*
X157135001Y-143402857D01*
X157135001Y-144188571D01*
X158420715Y-144117143D02*
X158277858Y-144188571D01*
X157992144Y-144188571D01*
X157849287Y-144117143D01*
X157777858Y-143974286D01*
X157777858Y-143402857D01*
X157849287Y-143260000D01*
X157992144Y-143188571D01*
X158277858Y-143188571D01*
X158420715Y-143260000D01*
X158492144Y-143402857D01*
X158492144Y-143545714D01*
X157777858Y-143688571D01*
X159777858Y-144188571D02*
X159777858Y-142688571D01*
X159777858Y-144117143D02*
X159635001Y-144188571D01*
X159349287Y-144188571D01*
X159206429Y-144117143D01*
X159135001Y-144045714D01*
X159063572Y-143902857D01*
X159063572Y-143474286D01*
X159135001Y-143331429D01*
X159206429Y-143260000D01*
X159349287Y-143188571D01*
X159635001Y-143188571D01*
X159777858Y-143260000D01*
X161635001Y-144188571D02*
X161635001Y-142688571D01*
X161635001Y-143260000D02*
X161777858Y-143188571D01*
X162063572Y-143188571D01*
X162206429Y-143260000D01*
X162277858Y-143331429D01*
X162349287Y-143474286D01*
X162349287Y-143902857D01*
X162277858Y-144045714D01*
X162206429Y-144117143D01*
X162063572Y-144188571D01*
X161777858Y-144188571D01*
X161635001Y-144117143D01*
X162849287Y-143188571D02*
X163206430Y-144188571D01*
X163563572Y-143188571D02*
X163206430Y-144188571D01*
X163063572Y-144545714D01*
X162992144Y-144617143D01*
X162849287Y-144688571D01*
X165706429Y-142688571D02*
X165706429Y-143760000D01*
X165635001Y-143974286D01*
X165492144Y-144117143D01*
X165277858Y-144188571D01*
X165135001Y-144188571D01*
X166635001Y-144188571D02*
X166492143Y-144117143D01*
X166420715Y-144045714D01*
X166349286Y-143902857D01*
X166349286Y-143474286D01*
X166420715Y-143331429D01*
X166492143Y-143260000D01*
X166635001Y-143188571D01*
X166849286Y-143188571D01*
X166992143Y-143260000D01*
X167063572Y-143331429D01*
X167135001Y-143474286D01*
X167135001Y-143902857D01*
X167063572Y-144045714D01*
X166992143Y-144117143D01*
X166849286Y-144188571D01*
X166635001Y-144188571D01*
X168349286Y-144117143D02*
X168206429Y-144188571D01*
X167920715Y-144188571D01*
X167777858Y-144117143D01*
X167706429Y-143974286D01*
X167706429Y-143402857D01*
X167777858Y-143260000D01*
X167920715Y-143188571D01*
X168206429Y-143188571D01*
X168349286Y-143260000D01*
X168420715Y-143402857D01*
X168420715Y-143545714D01*
X167706429Y-143688571D01*
X139240714Y-117430000D02*
X139097857Y-117358571D01*
X138883571Y-117358571D01*
X138669286Y-117430000D01*
X138526428Y-117572857D01*
X138455000Y-117715714D01*
X138383571Y-118001429D01*
X138383571Y-118215714D01*
X138455000Y-118501429D01*
X138526428Y-118644286D01*
X138669286Y-118787143D01*
X138883571Y-118858571D01*
X139026428Y-118858571D01*
X139240714Y-118787143D01*
X139312143Y-118715714D01*
X139312143Y-118215714D01*
X139026428Y-118215714D01*
X140169286Y-118858571D02*
X140026428Y-118787143D01*
X139955000Y-118715714D01*
X139883571Y-118572857D01*
X139883571Y-118144286D01*
X139955000Y-118001429D01*
X140026428Y-117930000D01*
X140169286Y-117858571D01*
X140383571Y-117858571D01*
X140526428Y-117930000D01*
X140597857Y-118001429D01*
X140669286Y-118144286D01*
X140669286Y-118572857D01*
X140597857Y-118715714D01*
X140526428Y-118787143D01*
X140383571Y-118858571D01*
X140169286Y-118858571D01*
X141955000Y-118858571D02*
X141955000Y-117358571D01*
X141955000Y-118787143D02*
X141812143Y-118858571D01*
X141526429Y-118858571D01*
X141383571Y-118787143D01*
X141312143Y-118715714D01*
X141240714Y-118572857D01*
X141240714Y-118144286D01*
X141312143Y-118001429D01*
X141383571Y-117930000D01*
X141526429Y-117858571D01*
X141812143Y-117858571D01*
X141955000Y-117930000D01*
X144455000Y-118858571D02*
X144455000Y-117358571D01*
X144455000Y-118787143D02*
X144312143Y-118858571D01*
X144026429Y-118858571D01*
X143883571Y-118787143D01*
X143812143Y-118715714D01*
X143740714Y-118572857D01*
X143740714Y-118144286D01*
X143812143Y-118001429D01*
X143883571Y-117930000D01*
X144026429Y-117858571D01*
X144312143Y-117858571D01*
X144455000Y-117930000D01*
X145812143Y-118858571D02*
X145812143Y-118072857D01*
X145740714Y-117930000D01*
X145597857Y-117858571D01*
X145312143Y-117858571D01*
X145169286Y-117930000D01*
X145812143Y-118787143D02*
X145669286Y-118858571D01*
X145312143Y-118858571D01*
X145169286Y-118787143D01*
X145097857Y-118644286D01*
X145097857Y-118501429D01*
X145169286Y-118358571D01*
X145312143Y-118287143D01*
X145669286Y-118287143D01*
X145812143Y-118215714D01*
X146526429Y-118858571D02*
X146526429Y-117858571D01*
X146526429Y-118001429D02*
X146597857Y-117930000D01*
X146740715Y-117858571D01*
X146955000Y-117858571D01*
X147097857Y-117930000D01*
X147169286Y-118072857D01*
X147169286Y-118858571D01*
X147169286Y-118072857D02*
X147240715Y-117930000D01*
X147383572Y-117858571D01*
X147597857Y-117858571D01*
X147740715Y-117930000D01*
X147812143Y-118072857D01*
X147812143Y-118858571D01*
X148526429Y-117858571D02*
X148526429Y-118858571D01*
X148526429Y-118001429D02*
X148597857Y-117930000D01*
X148740715Y-117858571D01*
X148955000Y-117858571D01*
X149097857Y-117930000D01*
X149169286Y-118072857D01*
X149169286Y-118858571D01*
X150812143Y-117858571D02*
X151383572Y-117858571D01*
X151026429Y-117358571D02*
X151026429Y-118644286D01*
X151097857Y-118787143D01*
X151240715Y-118858571D01*
X151383572Y-118858571D01*
X151883572Y-118858571D02*
X151883572Y-117358571D01*
X152526429Y-118858571D02*
X152526429Y-118072857D01*
X152455000Y-117930000D01*
X152312143Y-117858571D01*
X152097858Y-117858571D01*
X151955000Y-117930000D01*
X151883572Y-118001429D01*
X153812143Y-118787143D02*
X153669286Y-118858571D01*
X153383572Y-118858571D01*
X153240715Y-118787143D01*
X153169286Y-118644286D01*
X153169286Y-118072857D01*
X153240715Y-117930000D01*
X153383572Y-117858571D01*
X153669286Y-117858571D01*
X153812143Y-117930000D01*
X153883572Y-118072857D01*
X153883572Y-118215714D01*
X153169286Y-118358571D01*
X154455000Y-118787143D02*
X154597857Y-118858571D01*
X154883572Y-118858571D01*
X155026429Y-118787143D01*
X155097857Y-118644286D01*
X155097857Y-118572857D01*
X155026429Y-118430000D01*
X154883572Y-118358571D01*
X154669286Y-118358571D01*
X154526429Y-118287143D01*
X154455000Y-118144286D01*
X154455000Y-118072857D01*
X154526429Y-117930000D01*
X154669286Y-117858571D01*
X154883572Y-117858571D01*
X155026429Y-117930000D01*
X156312143Y-118787143D02*
X156169286Y-118858571D01*
X155883572Y-118858571D01*
X155740715Y-118787143D01*
X155669286Y-118644286D01*
X155669286Y-118072857D01*
X155740715Y-117930000D01*
X155883572Y-117858571D01*
X156169286Y-117858571D01*
X156312143Y-117930000D01*
X156383572Y-118072857D01*
X156383572Y-118215714D01*
X155669286Y-118358571D01*
X138240714Y-121187143D02*
X138097857Y-121258571D01*
X137812143Y-121258571D01*
X137669286Y-121187143D01*
X137597857Y-121044286D01*
X137597857Y-120472857D01*
X137669286Y-120330000D01*
X137812143Y-120258571D01*
X138097857Y-120258571D01*
X138240714Y-120330000D01*
X138312143Y-120472857D01*
X138312143Y-120615714D01*
X137597857Y-120758571D01*
X139169286Y-121258571D02*
X139026428Y-121187143D01*
X138955000Y-121044286D01*
X138955000Y-119758571D01*
X140312142Y-121187143D02*
X140169285Y-121258571D01*
X139883571Y-121258571D01*
X139740714Y-121187143D01*
X139669285Y-121044286D01*
X139669285Y-120472857D01*
X139740714Y-120330000D01*
X139883571Y-120258571D01*
X140169285Y-120258571D01*
X140312142Y-120330000D01*
X140383571Y-120472857D01*
X140383571Y-120615714D01*
X139669285Y-120758571D01*
X141669285Y-121187143D02*
X141526428Y-121258571D01*
X141240714Y-121258571D01*
X141097856Y-121187143D01*
X141026428Y-121115714D01*
X140954999Y-120972857D01*
X140954999Y-120544286D01*
X141026428Y-120401429D01*
X141097856Y-120330000D01*
X141240714Y-120258571D01*
X141526428Y-120258571D01*
X141669285Y-120330000D01*
X142097856Y-120258571D02*
X142669285Y-120258571D01*
X142312142Y-119758571D02*
X142312142Y-121044286D01*
X142383570Y-121187143D01*
X142526428Y-121258571D01*
X142669285Y-121258571D01*
X143169285Y-121258571D02*
X143169285Y-120258571D01*
X143169285Y-120544286D02*
X143240713Y-120401429D01*
X143312142Y-120330000D01*
X143454999Y-120258571D01*
X143597856Y-120258571D01*
X144097856Y-121258571D02*
X144097856Y-120258571D01*
X144097856Y-119758571D02*
X144026427Y-119830000D01*
X144097856Y-119901429D01*
X144169284Y-119830000D01*
X144097856Y-119758571D01*
X144097856Y-119901429D01*
X145454999Y-121187143D02*
X145312142Y-121258571D01*
X145026428Y-121258571D01*
X144883570Y-121187143D01*
X144812142Y-121115714D01*
X144740713Y-120972857D01*
X144740713Y-120544286D01*
X144812142Y-120401429D01*
X144883570Y-120330000D01*
X145026428Y-120258571D01*
X145312142Y-120258571D01*
X145454999Y-120330000D01*
X147169284Y-121187143D02*
X147312141Y-121258571D01*
X147597856Y-121258571D01*
X147740713Y-121187143D01*
X147812141Y-121044286D01*
X147812141Y-120972857D01*
X147740713Y-120830000D01*
X147597856Y-120758571D01*
X147383570Y-120758571D01*
X147240713Y-120687143D01*
X147169284Y-120544286D01*
X147169284Y-120472857D01*
X147240713Y-120330000D01*
X147383570Y-120258571D01*
X147597856Y-120258571D01*
X147740713Y-120330000D01*
X149026427Y-121187143D02*
X148883570Y-121258571D01*
X148597856Y-121258571D01*
X148454999Y-121187143D01*
X148383570Y-121044286D01*
X148383570Y-120472857D01*
X148454999Y-120330000D01*
X148597856Y-120258571D01*
X148883570Y-120258571D01*
X149026427Y-120330000D01*
X149097856Y-120472857D01*
X149097856Y-120615714D01*
X148383570Y-120758571D01*
X149597856Y-121258571D02*
X150383570Y-120258571D01*
X149597856Y-120258571D02*
X150383570Y-121258571D01*
X152097856Y-120258571D02*
X152097856Y-121758571D01*
X152097856Y-120330000D02*
X152240713Y-120258571D01*
X152526427Y-120258571D01*
X152669284Y-120330000D01*
X152740713Y-120401429D01*
X152812142Y-120544286D01*
X152812142Y-120972857D01*
X152740713Y-121115714D01*
X152669284Y-121187143D01*
X152526427Y-121258571D01*
X152240713Y-121258571D01*
X152097856Y-121187143D01*
X154097856Y-121258571D02*
X154097856Y-120472857D01*
X154026427Y-120330000D01*
X153883570Y-120258571D01*
X153597856Y-120258571D01*
X153454999Y-120330000D01*
X154097856Y-121187143D02*
X153954999Y-121258571D01*
X153597856Y-121258571D01*
X153454999Y-121187143D01*
X153383570Y-121044286D01*
X153383570Y-120901429D01*
X153454999Y-120758571D01*
X153597856Y-120687143D01*
X153954999Y-120687143D01*
X154097856Y-120615714D01*
X154812142Y-120258571D02*
X154812142Y-121258571D01*
X154812142Y-120401429D02*
X154883570Y-120330000D01*
X155026428Y-120258571D01*
X155240713Y-120258571D01*
X155383570Y-120330000D01*
X155454999Y-120472857D01*
X155454999Y-121258571D01*
X155954999Y-120258571D02*
X156526428Y-120258571D01*
X156169285Y-119758571D02*
X156169285Y-121044286D01*
X156240713Y-121187143D01*
X156383571Y-121258571D01*
X156526428Y-121258571D01*
X156954999Y-121187143D02*
X157097856Y-121258571D01*
X157383571Y-121258571D01*
X157526428Y-121187143D01*
X157597856Y-121044286D01*
X157597856Y-120972857D01*
X157526428Y-120830000D01*
X157383571Y-120758571D01*
X157169285Y-120758571D01*
X157026428Y-120687143D01*
X156954999Y-120544286D01*
X156954999Y-120472857D01*
X157026428Y-120330000D01*
X157169285Y-120258571D01*
X157383571Y-120258571D01*
X157526428Y-120330000D01*
X158240714Y-121115714D02*
X158312142Y-121187143D01*
X158240714Y-121258571D01*
X158169285Y-121187143D01*
X158240714Y-121115714D01*
X158240714Y-121258571D01*
D12*
X162315000Y-138160000D02*
X162315000Y-136160000D01*
X160265000Y-136160000D02*
X160265000Y-138160000D01*
X142990000Y-141554000D02*
X142990000Y-138854000D01*
X141490000Y-141554000D02*
X141490000Y-138854000D01*
X142390000Y-140054000D02*
X142140000Y-140054000D01*
X142140000Y-140054000D02*
X142290000Y-140204000D01*
X141890000Y-140304000D02*
X142590000Y-140304000D01*
X142240000Y-139954000D02*
X142240000Y-139604000D01*
X142240000Y-140304000D02*
X141890000Y-139954000D01*
X141890000Y-139954000D02*
X142590000Y-139954000D01*
X142590000Y-139954000D02*
X142240000Y-140304000D01*
X160415000Y-122520000D02*
X160415000Y-121320000D01*
X162165000Y-121320000D02*
X162165000Y-122520000D01*
X160415000Y-130140000D02*
X160415000Y-128940000D01*
X162165000Y-128940000D02*
X162165000Y-130140000D01*
X141365000Y-130140000D02*
X141365000Y-128940000D01*
X143115000Y-128940000D02*
X143115000Y-130140000D01*
X150325000Y-124425000D02*
X150325000Y-124570000D01*
X154475000Y-124425000D02*
X154475000Y-124570000D01*
X154475000Y-129575000D02*
X154475000Y-129430000D01*
X150325000Y-129575000D02*
X150325000Y-129430000D01*
X150325000Y-124425000D02*
X154475000Y-124425000D01*
X150325000Y-129575000D02*
X154475000Y-129575000D01*
X150325000Y-124570000D02*
X148925000Y-124570000D01*
X164298334Y-137517143D02*
X164250715Y-137564762D01*
X164107858Y-137612381D01*
X164012620Y-137612381D01*
X163869762Y-137564762D01*
X163774524Y-137469524D01*
X163726905Y-137374286D01*
X163679286Y-137183810D01*
X163679286Y-137040952D01*
X163726905Y-136850476D01*
X163774524Y-136755238D01*
X163869762Y-136660000D01*
X164012620Y-136612381D01*
X164107858Y-136612381D01*
X164250715Y-136660000D01*
X164298334Y-136707619D01*
X165250715Y-137612381D02*
X164679286Y-137612381D01*
X164965000Y-137612381D02*
X164965000Y-136612381D01*
X164869762Y-136755238D01*
X164774524Y-136850476D01*
X164679286Y-136898095D01*
X138961905Y-140152381D02*
X138961905Y-139152381D01*
X139200000Y-139152381D01*
X139342858Y-139200000D01*
X139438096Y-139295238D01*
X139485715Y-139390476D01*
X139533334Y-139580952D01*
X139533334Y-139723810D01*
X139485715Y-139914286D01*
X139438096Y-140009524D01*
X139342858Y-140104762D01*
X139200000Y-140152381D01*
X138961905Y-140152381D01*
X140485715Y-140152381D02*
X139914286Y-140152381D01*
X140200000Y-140152381D02*
X140200000Y-139152381D01*
X140104762Y-139295238D01*
X140009524Y-139390476D01*
X139914286Y-139438095D01*
X163663334Y-122372381D02*
X163330000Y-121896190D01*
X163091905Y-122372381D02*
X163091905Y-121372381D01*
X163472858Y-121372381D01*
X163568096Y-121420000D01*
X163615715Y-121467619D01*
X163663334Y-121562857D01*
X163663334Y-121705714D01*
X163615715Y-121800952D01*
X163568096Y-121848571D01*
X163472858Y-121896190D01*
X163091905Y-121896190D01*
X164615715Y-122372381D02*
X164044286Y-122372381D01*
X164330000Y-122372381D02*
X164330000Y-121372381D01*
X164234762Y-121515238D01*
X164139524Y-121610476D01*
X164044286Y-121658095D01*
X163663334Y-129992381D02*
X163330000Y-129516190D01*
X163091905Y-129992381D02*
X163091905Y-128992381D01*
X163472858Y-128992381D01*
X163568096Y-129040000D01*
X163615715Y-129087619D01*
X163663334Y-129182857D01*
X163663334Y-129325714D01*
X163615715Y-129420952D01*
X163568096Y-129468571D01*
X163472858Y-129516190D01*
X163091905Y-129516190D01*
X164044286Y-129087619D02*
X164091905Y-129040000D01*
X164187143Y-128992381D01*
X164425239Y-128992381D01*
X164520477Y-129040000D01*
X164568096Y-129087619D01*
X164615715Y-129182857D01*
X164615715Y-129278095D01*
X164568096Y-129420952D01*
X163996667Y-129992381D01*
X164615715Y-129992381D01*
X144613334Y-129992381D02*
X144280000Y-129516190D01*
X144041905Y-129992381D02*
X144041905Y-128992381D01*
X144422858Y-128992381D01*
X144518096Y-129040000D01*
X144565715Y-129087619D01*
X144613334Y-129182857D01*
X144613334Y-129325714D01*
X144565715Y-129420952D01*
X144518096Y-129468571D01*
X144422858Y-129516190D01*
X144041905Y-129516190D01*
X144946667Y-128992381D02*
X145565715Y-128992381D01*
X145232381Y-129373333D01*
X145375239Y-129373333D01*
X145470477Y-129420952D01*
X145518096Y-129468571D01*
X145565715Y-129563810D01*
X145565715Y-129801905D01*
X145518096Y-129897143D01*
X145470477Y-129944762D01*
X145375239Y-129992381D01*
X145089524Y-129992381D01*
X144994286Y-129944762D01*
X144946667Y-129897143D01*
X151638095Y-122952381D02*
X151638095Y-123761905D01*
X151685714Y-123857143D01*
X151733333Y-123904762D01*
X151828571Y-123952381D01*
X152019048Y-123952381D01*
X152114286Y-123904762D01*
X152161905Y-123857143D01*
X152209524Y-123761905D01*
X152209524Y-122952381D01*
X153209524Y-123952381D02*
X152638095Y-123952381D01*
X152923809Y-123952381D02*
X152923809Y-122952381D01*
X152828571Y-123095238D01*
X152733333Y-123190476D01*
X152638095Y-123238095D01*
%LPC*%
D13*
X161290000Y-135160000D03*
X161290000Y-139160000D03*
D14*
X142240000Y-138904980D03*
X142240000Y-141003020D03*
D15*
X161290000Y-120570000D03*
X161290000Y-123270000D03*
X161290000Y-128190000D03*
X161290000Y-130890000D03*
X142240000Y-128190000D03*
X142240000Y-130890000D03*
D16*
X149700000Y-125095000D03*
X149700000Y-126365000D03*
X149700000Y-127635000D03*
X149700000Y-128905000D03*
X155100000Y-128905000D03*
X155100000Y-127635000D03*
X155100000Y-126365000D03*
X155100000Y-125095000D03*
M02*
